<mxfile host="app.diagrams.net" modified="2023-02-08T07:16:45.450Z" agent="5.0 (Windows NT 10.0; Win64; x64) AppleWebKit/537.36 (KHTML, like Gecko) Chrome/109.0.0.0 Safari/537.36" etag="ClkDm2O1gSW2LRYR55Qr" version="20.5.1" type="github">
  <diagram id="BmteoGHIMbiJoiihTa94" name="第 1 页">
    <mxGraphModel dx="1292" dy="696" grid="1" gridSize="10" guides="1" tooltips="1" connect="1" arrows="1" fold="1" page="1" pageScale="1" pageWidth="827" pageHeight="1169" math="0" shadow="0">
      <root>
        <mxCell id="0" />
        <mxCell id="1" parent="0" />
        <mxCell id="C8DF4rmYH-9ow2z8qmge-1" value="" style="rounded=0;whiteSpace=wrap;html=1;" vertex="1" parent="1">
          <mxGeometry x="325" y="613.33" width="230" height="20" as="geometry" />
        </mxCell>
        <mxCell id="C8DF4rmYH-9ow2z8qmge-2" value="" style="rounded=0;whiteSpace=wrap;html=1;" vertex="1" parent="1">
          <mxGeometry x="325" y="693.33" width="180" height="20" as="geometry" />
        </mxCell>
        <mxCell id="C8DF4rmYH-9ow2z8qmge-3" value="&#xa;R&#xa;" style="triangle;rotation=90;align=left;verticalAlign=middle;fillColor=#d5e8d4;strokeColor=#82b366;" vertex="1" parent="1">
          <mxGeometry x="355" y="590" width="20" height="26.67" as="geometry" />
        </mxCell>
        <mxCell id="C8DF4rmYH-9ow2z8qmge-4" value="L" style="triangle;rotation=90;align=left;verticalAlign=middle;fillColor=#d5e8d4;strokeColor=#82b366;" vertex="1" parent="1">
          <mxGeometry x="485" y="590" width="20" height="26.67" as="geometry" />
        </mxCell>
        <mxCell id="C8DF4rmYH-9ow2z8qmge-6" value="&#xa;R&#xa;" style="triangle;rotation=90;align=left;verticalAlign=middle;fillColor=#d5e8d4;strokeColor=#82b366;" vertex="1" parent="1">
          <mxGeometry x="343.33" y="673.33" width="20" height="26.67" as="geometry" />
        </mxCell>
        <mxCell id="C8DF4rmYH-9ow2z8qmge-7" value="L" style="triangle;rotation=90;align=left;verticalAlign=middle;fillColor=#d5e8d4;strokeColor=#82b366;" vertex="1" parent="1">
          <mxGeometry x="445" y="673.33" width="20" height="26.67" as="geometry" />
        </mxCell>
        <mxCell id="C8DF4rmYH-9ow2z8qmge-13" style="edgeStyle=orthogonalEdgeStyle;rounded=0;orthogonalLoop=1;jettySize=auto;html=1;exitX=1;exitY=0.5;exitDx=0;exitDy=0;" edge="1" parent="1" source="C8DF4rmYH-9ow2z8qmge-12">
          <mxGeometry relative="1" as="geometry">
            <mxPoint x="280" y="75.0344827586207" as="targetPoint" />
          </mxGeometry>
        </mxCell>
        <mxCell id="C8DF4rmYH-9ow2z8qmge-12" value="播放速度匹配" style="text;html=1;strokeColor=none;fillColor=none;align=center;verticalAlign=middle;whiteSpace=wrap;rounded=0;" vertex="1" parent="1">
          <mxGeometry x="110" y="60" width="110" height="30" as="geometry" />
        </mxCell>
        <mxCell id="C8DF4rmYH-9ow2z8qmge-14" value="Leader和Follower机制" style="text;html=1;strokeColor=none;fillColor=none;align=center;verticalAlign=middle;whiteSpace=wrap;rounded=0;" vertex="1" parent="1">
          <mxGeometry x="300" y="60" width="130" height="30" as="geometry" />
        </mxCell>
        <mxCell id="C8DF4rmYH-9ow2z8qmge-15" value="" style="shape=curlyBracket;whiteSpace=wrap;html=1;rounded=1;" vertex="1" parent="1">
          <mxGeometry x="430" y="42.5" width="20" height="65" as="geometry" />
        </mxCell>
        <mxCell id="C8DF4rmYH-9ow2z8qmge-16" value="按混合权重区分" style="text;html=1;strokeColor=none;fillColor=none;align=center;verticalAlign=middle;whiteSpace=wrap;rounded=0;" vertex="1" parent="1">
          <mxGeometry x="450" y="30" width="110" height="30" as="geometry" />
        </mxCell>
        <mxCell id="C8DF4rmYH-9ow2z8qmge-17" value="手动配置" style="text;html=1;strokeColor=#d6b656;fillColor=#fff2cc;align=center;verticalAlign=middle;whiteSpace=wrap;rounded=0;" vertex="1" parent="1">
          <mxGeometry x="450" y="90" width="100" height="30" as="geometry" />
        </mxCell>
        <mxCell id="C8DF4rmYH-9ow2z8qmge-18" value="混合切入点" style="text;html=1;strokeColor=none;fillColor=none;align=center;verticalAlign=middle;whiteSpace=wrap;rounded=0;" vertex="1" parent="1">
          <mxGeometry x="110" y="190" width="110" height="30" as="geometry" />
        </mxCell>
        <mxCell id="C8DF4rmYH-9ow2z8qmge-19" value="" style="shape=curlyBracket;whiteSpace=wrap;html=1;rounded=1;" vertex="1" parent="1">
          <mxGeometry x="210" y="150" width="20" height="120" as="geometry" />
        </mxCell>
        <mxCell id="C8DF4rmYH-9ow2z8qmge-20" value="方案一：标记反查" style="text;html=1;strokeColor=none;fillColor=none;align=center;verticalAlign=middle;whiteSpace=wrap;rounded=0;" vertex="1" parent="1">
          <mxGeometry x="230" y="150" width="138.33" height="30" as="geometry" />
        </mxCell>
        <mxCell id="C8DF4rmYH-9ow2z8qmge-21" value="方案二：normalizedTime对齐 + 特殊处理&amp;nbsp;" style="text;html=1;strokeColor=none;fillColor=none;align=center;verticalAlign=middle;whiteSpace=wrap;rounded=0;" vertex="1" parent="1">
          <mxGeometry x="230" y="230" width="270" height="30" as="geometry" />
        </mxCell>
        <mxCell id="C8DF4rmYH-9ow2z8qmge-22" value="通用性高，对动画制作要求小" style="text;html=1;strokeColor=#82b366;fillColor=#d5e8d4;align=center;verticalAlign=middle;whiteSpace=wrap;rounded=0;" vertex="1" parent="1">
          <mxGeometry x="380" y="130" width="170" height="30" as="geometry" />
        </mxCell>
        <mxCell id="C8DF4rmYH-9ow2z8qmge-23" value="开发较困难，维护成本高，需要整套配置+Debug+后续查找维护的功能" style="text;html=1;strokeColor=#b85450;fillColor=#f8cecc;align=center;verticalAlign=middle;whiteSpace=wrap;rounded=0;" vertex="1" parent="1">
          <mxGeometry x="368.33" y="160" width="210" height="30" as="geometry" />
        </mxCell>
        <mxCell id="C8DF4rmYH-9ow2z8qmge-24" value="开发简单，额外数据量小，引擎内维护成本低" style="text;html=1;strokeColor=#82b366;fillColor=#d5e8d4;align=center;verticalAlign=middle;whiteSpace=wrap;rounded=0;" vertex="1" parent="1">
          <mxGeometry x="490" y="210" width="190" height="30" as="geometry" />
        </mxCell>
        <mxCell id="C8DF4rmYH-9ow2z8qmge-25" value="动画制作受限，对动画输出有一定要求标准，非Loop动画需要有专门的人负责处理" style="text;html=1;strokeColor=#b85450;fillColor=#f8cecc;align=center;verticalAlign=middle;whiteSpace=wrap;rounded=0;" vertex="1" parent="1">
          <mxGeometry x="490" y="240" width="350" height="30" as="geometry" />
        </mxCell>
        <mxCell id="C8DF4rmYH-9ow2z8qmge-26" value="&lt;h1&gt;方案一：&lt;/h1&gt;&lt;p&gt;为所有动画离线生成关于左右脚的标记数据，并通过算法检索正确的混入位置。&lt;/p&gt;&lt;p&gt;&lt;br&gt;&lt;/p&gt;" style="text;html=1;strokeColor=none;fillColor=none;spacing=5;spacingTop=-20;whiteSpace=wrap;overflow=hidden;rounded=0;" vertex="1" parent="1">
          <mxGeometry x="50" y="340" width="190" height="120" as="geometry" />
        </mxCell>
        <mxCell id="C8DF4rmYH-9ow2z8qmge-27" value="将脚步数据存成如下曲线：" style="text;html=1;strokeColor=none;fillColor=none;align=center;verticalAlign=middle;whiteSpace=wrap;rounded=0;" vertex="1" parent="1">
          <mxGeometry x="310" y="340" width="170" height="30" as="geometry" />
        </mxCell>
        <mxCell id="C8DF4rmYH-9ow2z8qmge-31" value="" style="shape=partialRectangle;whiteSpace=wrap;html=1;right=0;top=0;bottom=0;fillColor=none;routingCenterX=-0.5;" vertex="1" parent="1">
          <mxGeometry x="330" y="380" width="120" height="90" as="geometry" />
        </mxCell>
        <mxCell id="C8DF4rmYH-9ow2z8qmge-35" value="" style="edgeStyle=isometricEdgeStyle;endArrow=none;html=1;rounded=0;entryX=-0.031;entryY=0.703;entryDx=0;entryDy=0;entryPerimeter=0;" edge="1" parent="1" target="C8DF4rmYH-9ow2z8qmge-31">
          <mxGeometry width="50" height="100" relative="1" as="geometry">
            <mxPoint x="490" y="440" as="sourcePoint" />
            <mxPoint x="520" y="350" as="targetPoint" />
            <Array as="points" />
          </mxGeometry>
        </mxCell>
        <mxCell id="C8DF4rmYH-9ow2z8qmge-38" value="" style="endArrow=none;html=1;rounded=0;exitX=0;exitY=1;exitDx=0;exitDy=0;" edge="1" parent="1" source="C8DF4rmYH-9ow2z8qmge-31">
          <mxGeometry width="50" height="50" relative="1" as="geometry">
            <mxPoint x="470" y="430" as="sourcePoint" />
            <mxPoint x="500" y="470" as="targetPoint" />
          </mxGeometry>
        </mxCell>
        <mxCell id="C8DF4rmYH-9ow2z8qmge-39" value="在切出时，检索与目标动画中曲线点数据和斜率都相同的点进行匹配" style="text;html=1;strokeColor=none;fillColor=none;align=center;verticalAlign=middle;whiteSpace=wrap;rounded=0;" vertex="1" parent="1">
          <mxGeometry x="530" y="400" width="200" height="30" as="geometry" />
        </mxCell>
        <mxCell id="C8DF4rmYH-9ow2z8qmge-40" value="&lt;h1&gt;方案二：&lt;/h1&gt;&lt;p&gt;为loop和非loop动画做不同处理，利用normalizedTime进行对齐&lt;/p&gt;&lt;p&gt;&lt;br&gt;&lt;/p&gt;" style="text;html=1;strokeColor=none;fillColor=none;spacing=5;spacingTop=-20;whiteSpace=wrap;overflow=hidden;rounded=0;" vertex="1" parent="1">
          <mxGeometry x="50" y="550" width="190" height="120" as="geometry" />
        </mxCell>
        <mxCell id="C8DF4rmYH-9ow2z8qmge-42" value="Loop动画：" style="text;html=1;strokeColor=none;fillColor=none;align=center;verticalAlign=middle;whiteSpace=wrap;rounded=0;" vertex="1" parent="1">
          <mxGeometry x="317.5" y="550" width="95" height="30" as="geometry" />
        </mxCell>
        <mxCell id="C8DF4rmYH-9ow2z8qmge-44" value="" style="endArrow=classic;html=1;rounded=0;entryX=0.5;entryY=0;entryDx=0;entryDy=0;exitX=0.567;exitY=0.989;exitDx=0;exitDy=0;exitPerimeter=0;" edge="1" parent="1" source="C8DF4rmYH-9ow2z8qmge-1" target="C8DF4rmYH-9ow2z8qmge-2">
          <mxGeometry width="50" height="50" relative="1" as="geometry">
            <mxPoint x="570" y="710" as="sourcePoint" />
            <mxPoint x="620" y="660" as="targetPoint" />
          </mxGeometry>
        </mxCell>
        <mxCell id="C8DF4rmYH-9ow2z8qmge-45" value="保证脚步在动画中处在相同百分比的位置。在切出动画时，直接选择对应的百分比位置播放即可" style="text;html=1;strokeColor=none;fillColor=none;align=center;verticalAlign=middle;whiteSpace=wrap;rounded=0;" vertex="1" parent="1">
          <mxGeometry x="578.33" y="643.33" width="210" height="30" as="geometry" />
        </mxCell>
        <mxCell id="C8DF4rmYH-9ow2z8qmge-46" value="非Loop动画（以停步为例）：" style="text;html=1;strokeColor=none;fillColor=none;align=center;verticalAlign=middle;whiteSpace=wrap;rounded=0;" vertex="1" parent="1">
          <mxGeometry x="325" y="790" width="215" height="30" as="geometry" />
        </mxCell>
        <mxCell id="C8DF4rmYH-9ow2z8qmge-50" value="" style="rounded=0;whiteSpace=wrap;html=1;" vertex="1" parent="1">
          <mxGeometry x="330" y="860" width="180" height="20" as="geometry" />
        </mxCell>
        <mxCell id="C8DF4rmYH-9ow2z8qmge-51" value="&#xa;R&#xa;" style="triangle;rotation=90;align=left;verticalAlign=middle;fillColor=#d5e8d4;strokeColor=#82b366;" vertex="1" parent="1">
          <mxGeometry x="348.33" y="840" width="20" height="26.67" as="geometry" />
        </mxCell>
        <mxCell id="C8DF4rmYH-9ow2z8qmge-52" value="L" style="triangle;rotation=90;align=left;verticalAlign=middle;fillColor=#d5e8d4;strokeColor=#82b366;" vertex="1" parent="1">
          <mxGeometry x="450" y="840" width="20" height="26.67" as="geometry" />
        </mxCell>
        <mxCell id="C8DF4rmYH-9ow2z8qmge-53" value="" style="rounded=0;whiteSpace=wrap;html=1;" vertex="1" parent="1">
          <mxGeometry x="330" y="930" width="310" height="20" as="geometry" />
        </mxCell>
        <mxCell id="C8DF4rmYH-9ow2z8qmge-54" value="L" style="triangle;rotation=90;align=left;verticalAlign=middle;fillColor=#d5e8d4;strokeColor=#82b366;" vertex="1" parent="1">
          <mxGeometry x="450" y="910" width="20" height="26.67" as="geometry" />
        </mxCell>
        <mxCell id="C8DF4rmYH-9ow2z8qmge-55" value="&#xa;R&#xa;" style="triangle;rotation=90;align=left;verticalAlign=middle;fillColor=#d5e8d4;strokeColor=#82b366;" vertex="1" parent="1">
          <mxGeometry x="323.33" y="910" width="20" height="26.67" as="geometry" />
        </mxCell>
        <mxCell id="C8DF4rmYH-9ow2z8qmge-56" value="Stop" style="text;html=1;strokeColor=none;fillColor=none;align=center;verticalAlign=middle;whiteSpace=wrap;rounded=0;" vertex="1" parent="1">
          <mxGeometry x="257.5" y="925" width="60" height="30" as="geometry" />
        </mxCell>
        <mxCell id="C8DF4rmYH-9ow2z8qmge-57" value="Loop" style="text;html=1;strokeColor=none;fillColor=none;align=center;verticalAlign=middle;whiteSpace=wrap;rounded=0;" vertex="1" parent="1">
          <mxGeometry x="257.5" y="855" width="60" height="30" as="geometry" />
        </mxCell>
        <mxCell id="C8DF4rmYH-9ow2z8qmge-58" value="为Stop动画手动生成一条对应曲线，用于反向比对Loop动画" style="text;html=1;strokeColor=none;fillColor=none;align=center;verticalAlign=middle;whiteSpace=wrap;rounded=0;" vertex="1" parent="1">
          <mxGeometry x="45" y="990" width="212.5" height="30" as="geometry" />
        </mxCell>
        <mxCell id="C8DF4rmYH-9ow2z8qmge-60" value="" style="endArrow=none;html=1;rounded=0;" edge="1" parent="1">
          <mxGeometry width="50" height="50" relative="1" as="geometry">
            <mxPoint x="330" y="1050" as="sourcePoint" />
            <mxPoint x="330" y="960" as="targetPoint" />
          </mxGeometry>
        </mxCell>
        <mxCell id="C8DF4rmYH-9ow2z8qmge-61" value="" style="endArrow=none;html=1;rounded=0;" edge="1" parent="1">
          <mxGeometry width="50" height="50" relative="1" as="geometry">
            <mxPoint x="330" y="1050" as="sourcePoint" />
            <mxPoint x="640" y="1050" as="targetPoint" />
          </mxGeometry>
        </mxCell>
        <mxCell id="C8DF4rmYH-9ow2z8qmge-64" value="" style="endArrow=none;html=1;curved=1;" edge="1" parent="1">
          <mxGeometry width="50" height="50" relative="1" as="geometry">
            <mxPoint x="330" y="1040" as="sourcePoint" />
            <mxPoint x="460" y="990" as="targetPoint" />
          </mxGeometry>
        </mxCell>
        <mxCell id="C8DF4rmYH-9ow2z8qmge-66" value="1" style="text;html=1;strokeColor=none;fillColor=none;align=center;verticalAlign=middle;whiteSpace=wrap;rounded=0;" vertex="1" parent="1">
          <mxGeometry x="288.33" y="960" width="60" height="30" as="geometry" />
        </mxCell>
        <mxCell id="C8DF4rmYH-9ow2z8qmge-67" value="" style="endArrow=none;html=1;curved=1;" edge="1" parent="1">
          <mxGeometry width="50" height="50" relative="1" as="geometry">
            <mxPoint x="460" y="990" as="sourcePoint" />
            <mxPoint x="460" y="970" as="targetPoint" />
          </mxGeometry>
        </mxCell>
        <mxCell id="C8DF4rmYH-9ow2z8qmge-68" value="" style="endArrow=none;html=1;curved=1;" edge="1" parent="1">
          <mxGeometry width="50" height="50" relative="1" as="geometry">
            <mxPoint x="460" y="970" as="sourcePoint" />
            <mxPoint x="620" y="970" as="targetPoint" />
          </mxGeometry>
        </mxCell>
        <mxCell id="C8DF4rmYH-9ow2z8qmge-70" value="" style="shape=flexArrow;endArrow=classic;html=1;curved=1;fillColor=#e1d5e7;strokeColor=#9673a6;" edge="1" parent="1">
          <mxGeometry width="50" height="50" relative="1" as="geometry">
            <mxPoint x="429.52" y="830" as="sourcePoint" />
            <mxPoint x="429.52" y="860" as="targetPoint" />
          </mxGeometry>
        </mxCell>
        <mxCell id="C8DF4rmYH-9ow2z8qmge-72" value="" style="shape=flexArrow;endArrow=classic;html=1;curved=1;fillColor=#e1d5e7;strokeColor=#9673a6;" edge="1" parent="1">
          <mxGeometry width="50" height="50" relative="1" as="geometry">
            <mxPoint x="270" y="1004.76" as="sourcePoint" />
            <mxPoint x="329.9999999999998" y="1004.76" as="targetPoint" />
          </mxGeometry>
        </mxCell>
        <mxCell id="C8DF4rmYH-9ow2z8qmge-74" value="" style="endArrow=none;dashed=1;html=1;dashPattern=1 3;strokeWidth=2;curved=1;fillColor=#e1d5e7;strokeColor=#9673a6;" edge="1" parent="1">
          <mxGeometry width="50" height="50" relative="1" as="geometry">
            <mxPoint x="330" y="1000" as="sourcePoint" />
            <mxPoint x="430" y="1000" as="targetPoint" />
          </mxGeometry>
        </mxCell>
        <mxCell id="C8DF4rmYH-9ow2z8qmge-75" value="" style="endArrow=none;dashed=1;html=1;curved=1;entryX=0.321;entryY=-0.01;entryDx=0;entryDy=0;entryPerimeter=0;fillColor=#e1d5e7;strokeColor=#9673a6;" edge="1" parent="1" target="C8DF4rmYH-9ow2z8qmge-53">
          <mxGeometry width="50" height="50" relative="1" as="geometry">
            <mxPoint x="430" y="1050" as="sourcePoint" />
            <mxPoint x="610" y="940" as="targetPoint" />
          </mxGeometry>
        </mxCell>
        <mxCell id="C8DF4rmYH-9ow2z8qmge-76" value="" style="endArrow=classic;html=1;curved=1;exitX=0.565;exitY=0.959;exitDx=0;exitDy=0;exitPerimeter=0;" edge="1" parent="1" source="C8DF4rmYH-9ow2z8qmge-50">
          <mxGeometry width="50" height="50" relative="1" as="geometry">
            <mxPoint x="510" y="910" as="sourcePoint" />
            <mxPoint x="430" y="930" as="targetPoint" />
          </mxGeometry>
        </mxCell>
        <mxCell id="C8DF4rmYH-9ow2z8qmge-94" value="" style="rounded=0;whiteSpace=wrap;html=1;" vertex="1" parent="1">
          <mxGeometry x="750" y="870" width="180" height="20" as="geometry" />
        </mxCell>
        <mxCell id="C8DF4rmYH-9ow2z8qmge-95" value="&#xa;R&#xa;" style="triangle;rotation=90;align=left;verticalAlign=middle;fillColor=#d5e8d4;strokeColor=#82b366;" vertex="1" parent="1">
          <mxGeometry x="768.3299999999999" y="850" width="20" height="26.67" as="geometry" />
        </mxCell>
        <mxCell id="C8DF4rmYH-9ow2z8qmge-96" value="L" style="triangle;rotation=90;align=left;verticalAlign=middle;fillColor=#d5e8d4;strokeColor=#82b366;" vertex="1" parent="1">
          <mxGeometry x="870" y="850" width="20" height="26.67" as="geometry" />
        </mxCell>
        <mxCell id="C8DF4rmYH-9ow2z8qmge-97" value="" style="rounded=0;whiteSpace=wrap;html=1;" vertex="1" parent="1">
          <mxGeometry x="750" y="940" width="310" height="20" as="geometry" />
        </mxCell>
        <mxCell id="C8DF4rmYH-9ow2z8qmge-98" value="L" style="triangle;rotation=90;align=left;verticalAlign=middle;fillColor=#d5e8d4;strokeColor=#82b366;" vertex="1" parent="1">
          <mxGeometry x="740" y="923.33" width="20" height="26.67" as="geometry" />
        </mxCell>
        <mxCell id="C8DF4rmYH-9ow2z8qmge-99" value="&#xa;R&#xa;" style="triangle;rotation=90;align=left;verticalAlign=middle;fillColor=#d5e8d4;strokeColor=#82b366;" vertex="1" parent="1">
          <mxGeometry x="869.9999999999999" y="923.33" width="20" height="26.67" as="geometry" />
        </mxCell>
        <mxCell id="C8DF4rmYH-9ow2z8qmge-100" value="" style="endArrow=none;html=1;rounded=0;" edge="1" parent="1">
          <mxGeometry width="50" height="50" relative="1" as="geometry">
            <mxPoint x="750" y="1060" as="sourcePoint" />
            <mxPoint x="750" y="970" as="targetPoint" />
          </mxGeometry>
        </mxCell>
        <mxCell id="C8DF4rmYH-9ow2z8qmge-101" value="" style="endArrow=none;html=1;rounded=0;" edge="1" parent="1">
          <mxGeometry width="50" height="50" relative="1" as="geometry">
            <mxPoint x="750" y="1060" as="sourcePoint" />
            <mxPoint x="1059.9999999999998" y="1060" as="targetPoint" />
          </mxGeometry>
        </mxCell>
        <mxCell id="C8DF4rmYH-9ow2z8qmge-102" value="" style="endArrow=none;html=1;curved=1;" edge="1" parent="1">
          <mxGeometry width="50" height="50" relative="1" as="geometry">
            <mxPoint x="750" y="1000" as="sourcePoint" />
            <mxPoint x="830" y="980" as="targetPoint" />
          </mxGeometry>
        </mxCell>
        <mxCell id="C8DF4rmYH-9ow2z8qmge-103" value="1" style="text;html=1;strokeColor=none;fillColor=none;align=center;verticalAlign=middle;whiteSpace=wrap;rounded=0;" vertex="1" parent="1">
          <mxGeometry x="730" y="970" width="21.67" height="20" as="geometry" />
        </mxCell>
        <mxCell id="C8DF4rmYH-9ow2z8qmge-104" value="" style="endArrow=none;html=1;curved=1;" edge="1" parent="1">
          <mxGeometry width="50" height="50" relative="1" as="geometry">
            <mxPoint x="830" y="1060" as="sourcePoint" />
            <mxPoint x="830" y="980" as="targetPoint" />
          </mxGeometry>
        </mxCell>
        <mxCell id="C8DF4rmYH-9ow2z8qmge-105" value="" style="endArrow=none;html=1;curved=1;" edge="1" parent="1">
          <mxGeometry width="50" height="50" relative="1" as="geometry">
            <mxPoint x="879.9999999999998" y="980" as="sourcePoint" />
            <mxPoint x="1039.9999999999998" y="980" as="targetPoint" />
          </mxGeometry>
        </mxCell>
        <mxCell id="C8DF4rmYH-9ow2z8qmge-106" value="" style="shape=flexArrow;endArrow=classic;html=1;curved=1;fillColor=#e1d5e7;strokeColor=#9673a6;" edge="1" parent="1">
          <mxGeometry width="50" height="50" relative="1" as="geometry">
            <mxPoint x="910" y="840" as="sourcePoint" />
            <mxPoint x="910" y="870" as="targetPoint" />
          </mxGeometry>
        </mxCell>
        <mxCell id="C8DF4rmYH-9ow2z8qmge-111" value="" style="endArrow=none;html=1;curved=1;" edge="1" parent="1">
          <mxGeometry width="50" height="50" relative="1" as="geometry">
            <mxPoint x="830" y="1060" as="sourcePoint" />
            <mxPoint x="880" y="1040" as="targetPoint" />
          </mxGeometry>
        </mxCell>
        <mxCell id="C8DF4rmYH-9ow2z8qmge-112" value="" style="endArrow=none;html=1;curved=1;" edge="1" parent="1">
          <mxGeometry width="50" height="50" relative="1" as="geometry">
            <mxPoint x="880" y="1040" as="sourcePoint" />
            <mxPoint x="880" y="980" as="targetPoint" />
          </mxGeometry>
        </mxCell>
        <mxCell id="C8DF4rmYH-9ow2z8qmge-113" value="" style="shape=flexArrow;endArrow=classic;html=1;curved=1;fillColor=#e1d5e7;strokeColor=#9673a6;" edge="1" parent="1">
          <mxGeometry width="50" height="50" relative="1" as="geometry">
            <mxPoint x="690" y="990" as="sourcePoint" />
            <mxPoint x="749.9999999999998" y="990" as="targetPoint" />
          </mxGeometry>
        </mxCell>
        <mxCell id="C8DF4rmYH-9ow2z8qmge-114" value="" style="endArrow=none;dashed=1;html=1;dashPattern=1 3;strokeWidth=2;curved=1;fillColor=#e1d5e7;strokeColor=#9673a6;" edge="1" parent="1">
          <mxGeometry width="50" height="50" relative="1" as="geometry">
            <mxPoint x="750" y="990" as="sourcePoint" />
            <mxPoint x="790" y="990" as="targetPoint" />
          </mxGeometry>
        </mxCell>
        <mxCell id="C8DF4rmYH-9ow2z8qmge-115" value="" style="endArrow=none;dashed=1;html=1;curved=1;entryX=0.321;entryY=-0.01;entryDx=0;entryDy=0;entryPerimeter=0;fillColor=#e1d5e7;strokeColor=#9673a6;" edge="1" parent="1">
          <mxGeometry width="50" height="50" relative="1" as="geometry">
            <mxPoint x="788.8199999999999" y="1060.1999999999998" as="sourcePoint" />
            <mxPoint x="788.3299999999999" y="940" as="targetPoint" />
          </mxGeometry>
        </mxCell>
        <mxCell id="C8DF4rmYH-9ow2z8qmge-116" value="" style="endArrow=classic;html=1;curved=1;entryX=0.132;entryY=-0.027;entryDx=0;entryDy=0;entryPerimeter=0;exitX=0.895;exitY=1.073;exitDx=0;exitDy=0;exitPerimeter=0;" edge="1" parent="1" source="C8DF4rmYH-9ow2z8qmge-94" target="C8DF4rmYH-9ow2z8qmge-97">
          <mxGeometry width="50" height="50" relative="1" as="geometry">
            <mxPoint x="760" y="1000" as="sourcePoint" />
            <mxPoint x="810" y="950" as="targetPoint" />
          </mxGeometry>
        </mxCell>
      </root>
    </mxGraphModel>
  </diagram>
</mxfile>
